<?xml version="1.0" standalone="no"?>
<!DOCTYPE svg PUBLIC "-//W3C//DTD SVG 20010904//EN"
 "http://www.w3.org/TR/2001/REC-SVG-20010904/DTD/svg10.dtd">
<svg version="1.0" xmlns="http://www.w3.org/2000/svg"
 width="725.000000pt" height="484.000000pt" viewBox="0 0 725.000000 484.000000"
 preserveAspectRatio="xMidYMid meet">
<metadata>
Created by potrace 1.16, written by Peter Selinger 2001-2019
</metadata>
<g transform="translate(0.000000,484.000000) scale(0.100000,-0.100000)"
fill="#000000" stroke="none">
<path d="M3000 4080 c-147 -16 -262 -35 -370 -60 -19 -5 -55 -14 -80 -19 -95
-23 -148 -62 -271 -201 -17 -19 -53 -59 -80 -88 -27 -28 -49 -57 -49 -62 0 -6
-5 -10 -10 -10 -6 0 -39 -30 -73 -67 -34 -37 -96 -101 -137 -143 -41 -42 -113
-117 -159 -166 -46 -49 -91 -93 -100 -99 -9 -6 -162 -12 -371 -15 -355 -6
-355 -6 -434 -43 -43 -20 -84 -37 -91 -37 -6 0 -20 -9 -30 -20 -10 -11 -27
-22 -39 -26 -22 -7 -95 -66 -167 -135 -39 -37 -129 -160 -129 -175 0 -4 -8
-17 -19 -28 -10 -12 -26 -45 -36 -73 -9 -29 -20 -55 -25 -58 -13 -8 -1 -34 21
-46 34 -18 67 0 92 51 13 26 36 60 50 76 25 27 27 27 27 8 0 -12 -6 -27 -14
-33 -19 -16 -29 -60 -17 -75 6 -7 8 -16 4 -20 -4 -4 0 -4 10 0 9 3 17 14 17
24 0 20 92 110 141 136 26 14 55 19 119 19 136 0 200 -43 275 -184 28 -53 32
-56 72 -59 34 -3 44 1 53 18 12 22 12 22 33 2 27 -25 125 -39 156 -23 16 9 21
21 21 53 0 51 -37 188 -56 207 -29 31 -164 17 -164 -17 0 -7 6 -27 13 -45 19
-45 30 -137 17 -137 -5 0 -10 8 -10 18 0 10 -6 26 -14 37 -7 11 -17 31 -21 44
-18 59 -99 143 -168 175 -81 37 -218 41 -296 9 -18 -8 -35 -12 -38 -9 -11 11
29 38 114 77 76 35 100 41 180 46 86 6 96 4 149 -22 31 -15 68 -40 83 -54 83
-85 200 -95 238 -21 12 24 13 23 13 -17 0 -23 4 -45 10 -48 17 -11 621 -5 641
6 11 5 31 29 46 52 27 44 113 137 126 137 4 0 7 -9 7 -21 0 -21 -32 -149 -52
-204 -28 -81 -28 -175 0 -175 5 0 39 60 76 133 67 133 97 180 204 311 48 58
78 84 146 128 38 25 186 69 271 82 191 29 434 1 571 -65 22 -10 45 -19 51 -19
7 0 18 -6 25 -12 7 -7 31 -22 53 -33 57 -28 125 -75 125 -85 0 -5 9 -12 20
-15 25 -8 26 -37 1 -59 -22 -20 -64 -147 -59 -179 7 -50 42 -30 172 98 16 17
39 35 51 42 43 26 205 103 215 103 6 0 35 11 65 25 37 18 55 32 57 48 4 31 58
40 129 21 31 -8 78 -14 103 -14 41 0 51 5 85 41 31 31 42 53 51 97 20 99 7 90
138 94 282 9 1695 7 1718 -2 13 -5 29 -22 34 -37 6 -16 17 -41 25 -58 7 -16
16 -38 19 -47 7 -23 49 -23 67 -1 10 11 13 40 12 97 -2 70 -6 86 -31 121 -46
66 -89 75 -309 68 -157 -5 -189 -3 -227 11 -24 9 -50 24 -56 32 -7 7 -21 14
-31 14 -10 0 -24 9 -31 20 -7 11 -17 20 -23 20 -5 0 -29 13 -51 28 -23 15 -57
36 -75 47 -18 11 -49 30 -69 43 -19 12 -57 34 -85 48 -27 14 -75 39 -105 56
-134 74 -263 135 -279 131 -9 -2 -29 -24 -44 -48 -26 -45 -26 -45 7 -70 18
-14 40 -25 48 -25 27 0 448 -223 456 -242 2 -4 12 -8 21 -8 10 0 28 -11 40
-24 20 -21 20 -24 5 -30 -9 -3 -329 -6 -710 -6 -694 1 -694 1 -764 34 -38 19
-93 49 -121 67 -28 18 -63 32 -77 32 -64 -1 -188 -25 -202 -38 -13 -14 -11
-18 15 -40 17 -14 53 -37 80 -51 28 -15 57 -32 65 -39 8 -7 26 -16 40 -20 13
-4 36 -16 50 -25 14 -9 51 -34 83 -55 31 -21 54 -42 50 -46 -11 -10 -98 12
-203 51 -313 116 -422 139 -681 147 -239 7 -274 1 -511 -78 -180 -61 -215 -75
-220 -91 -3 -7 -12 -9 -22 -5 -16 6 -16 10 6 49 12 24 32 57 44 73 12 17 39
66 60 110 21 44 60 114 86 155 27 41 48 82 48 91 0 9 7 22 15 29 8 7 15 18 15
25 0 7 7 18 15 25 13 11 38 7 143 -20 70 -18 132 -36 137 -40 6 -3 51 -19 100
-34 50 -15 108 -36 130 -46 22 -10 65 -26 95 -35 30 -9 64 -25 75 -35 11 -10
39 -23 62 -29 36 -10 48 -9 95 12 56 25 84 50 73 66 -3 6 -58 10 -140 8 -134
-2 -134 -2 -187 53 -30 30 -57 63 -61 73 -3 9 -11 17 -17 17 -5 0 -10 6 -10
14 0 15 -75 56 -102 56 -9 0 -21 6 -27 13 -8 11 -6 18 9 32 25 23 25 26 -2 85
-26 56 -76 91 -129 89 -19 -1 -108 -9 -199 -19z m-210 -249 c0 -16 -117 -232
-130 -241 -7 -5 -73 -121 -121 -215 -11 -22 -28 -53 -38 -70 -9 -16 -32 -56
-50 -87 -33 -58 -33 -58 -302 -58 -148 0 -269 3 -269 7 0 8 45 68 69 91 10 9
92 103 183 207 233 268 322 357 367 366 52 10 291 11 291 0z m-2165 -1071 c-3
-5 -11 -10 -16 -10 -6 0 -7 5 -4 10 3 6 11 10 16 10 6 0 7 -4 4 -10z m-83 -72
c-7 -7 -12 -8 -12 -2 0 14 12 26 19 19 2 -3 -1 -11 -7 -17z"/>
<path d="M2741 3029 c-34 -6 -80 -19 -102 -29 -21 -11 -44 -20 -51 -20 -40 -1
-175 -139 -216 -222 -35 -68 -61 -190 -48 -223 6 -17 7 -17 21 1 8 10 15 25
15 33 0 21 71 132 114 179 74 80 202 127 322 120 177 -12 339 -159 363 -328 5
-42 14 -68 26 -77 27 -19 129 -17 146 3 17 21 25 132 10 147 -6 6 -11 21 -11
34 0 30 -51 141 -79 172 -11 13 -21 27 -21 31 0 12 -83 90 -96 90 -6 0 -17 6
-23 14 -24 29 -108 64 -166 70 -120 13 -141 14 -204 5z"/>
<path d="M5122 2896 c-15 -5 -32 -13 -38 -18 -7 -5 -22 -4 -37 1 -14 6 -177
11 -369 12 -374 2 -396 -1 -431 -54 -21 -33 -22 -105 -2 -134 23 -33 75 -43
219 -43 101 0 127 -3 118 -12 -21 -21 -13 -43 21 -63 17 -10 35 -24 40 -31 4
-7 26 -15 50 -18 53 -7 2151 -15 2195 -9 28 5 32 9 32 34 0 38 -39 99 -89 139
-33 27 -38 35 -29 50 13 20 9 30 -35 90 -34 45 -34 45 -143 52 -100 6 -110 5
-126 -13 -18 -21 -14 -54 10 -82 8 -9 13 -20 9 -23 -6 -6 -57 69 -57 85 0 34
-40 36 -678 41 -354 3 -644 1 -660 -4z m-22 -68 c0 -5 -4 -8 -10 -8 -5 0 -10
10 -10 23 0 18 2 19 10 7 5 -8 10 -18 10 -22z m40 -108 c0 -40 -14 -60 -43
-60 -18 0 -17 1 2 26 12 16 21 42 21 63 0 27 3 32 10 21 5 -8 10 -31 10 -50z
m-397 -57 c-7 -2 -19 -2 -25 0 -7 3 -2 5 12 5 14 0 19 -2 13 -5z m107 -3 c0
-5 -20 -10 -45 -10 -25 0 -45 5 -45 10 0 6 20 10 45 10 25 0 45 -4 45 -10z"/>
<path d="M281 2317 c-5 -12 -11 -97 -15 -189 -3 -91 -11 -213 -16 -270 -5 -57
-12 -146 -16 -198 -3 -52 -8 -98 -10 -101 -2 -4 -10 -58 -19 -120 -8 -62 -18
-116 -23 -121 -5 -5 -6 -27 -3 -51 6 -42 6 -42 670 -47 465 -3 668 -2 679 6
16 12 41 133 41 205 1 34 -3 49 -15 53 -9 3 -182 6 -386 6 l-371 0 7 123 c7
116 13 197 36 452 5 61 15 141 21 178 8 46 9 71 2 78 -6 6 -120 11 -292 14
-282 3 -282 3 -290 -18z"/>
<path d="M1715 2328 c-9 -6 -15 -48 -19 -155 -11 -236 -36 -613 -46 -678 -19
-119 -30 -244 -24 -259 6 -15 58 -16 518 -16 281 0 554 5 606 11 131 14 240
38 269 60 13 11 32 19 42 19 10 0 51 19 90 43 100 59 198 160 226 232 6 16 19
50 28 75 26 67 32 232 11 293 -24 71 -44 106 -91 162 -44 52 -155 135 -180
135 -7 0 -16 4 -19 9 -5 8 -120 47 -167 57 -109 22 -1206 32 -1244 12z m900
-271 c22 -8 59 -20 82 -26 51 -14 126 -86 143 -137 31 -93 -15 -245 -90 -299
-23 -17 -48 -36 -56 -43 -36 -34 -201 -62 -361 -62 -133 0 -133 0 -133 63 1
34 5 96 11 137 5 41 11 120 14 175 6 136 14 198 26 206 21 13 323 1 364 -14z"/>
<path d="M3564 2331 c-26 -5 -35 -21 -29 -51 11 -52 -51 -823 -81 -1005 -9
-57 -9 -57 262 -56 141 1 253 6 258 11 6 6 13 96 18 202 14 359 20 418 44 418
7 0 19 -10 25 -22 12 -24 47 -64 158 -184 36 -39 98 -106 136 -148 39 -43 103
-112 143 -153 39 -42 72 -79 72 -82 0 -4 13 -14 29 -24 26 -15 64 -17 340 -17
363 0 334 -11 332 127 -1 46 3 112 8 146 6 34 15 132 21 217 11 156 47 540 54
572 2 9 -2 25 -8 34 -11 15 -39 16 -257 15 -146 -1 -248 -6 -254 -12 -6 -6
-11 -79 -12 -167 -1 -86 -5 -177 -8 -202 -3 -25 -8 -90 -11 -145 -4 -55 -10
-106 -14 -114 -8 -16 -19 -5 -205 214 -27 32 -68 79 -91 104 -22 25 -54 61
-70 80 -16 19 -36 42 -44 50 -33 35 -136 159 -145 175 -9 16 -37 18 -331 19
-176 1 -329 0 -340 -2z"/>
<path d="M5494 2325 c-9 -7 -16 -82 -24 -255 -6 -135 -14 -252 -16 -260 -3 -8
-7 -40 -10 -70 -10 -135 -25 -279 -33 -330 -5 -30 -11 -81 -14 -113 -5 -52 -3
-59 16 -70 17 -9 181 -11 710 -9 792 3 712 -16 718 167 l4 100 -420 0 -420 0
0 75 c0 75 0 75 150 81 83 4 244 6 358 5 240 -2 212 -18 225 130 13 154 50
139 -339 139 -183 0 -340 4 -346 8 -14 9 -17 65 -7 117 7 32 7 32 420 29 227
-2 416 -1 420 3 12 12 26 226 16 244 -8 14 -76 16 -702 17 -449 1 -697 -2
-706 -8z"/>
<path d="M4092 385 c0 -16 2 -22 5 -12 2 9 2 23 0 30 -3 6 -5 -1 -5 -18z"/>
</g>
</svg>
